<svg width="1621" height="1268" viewBox="0 0 1621 1268" fill="none" xmlns="http://www.w3.org/2000/svg">
<rect width="1621" height="1268" rx="41" fill="#DDDDDD"/>
<path d="M987 434V386C987 381.6 983.4 378 979 378H595C590.6 378 587 381.6 587 386V434C587 438.4 590.6 442 595 442H979C983.4 442 987 438.4 987 434ZM595 522C590.6 522 587 525.6 587 530V578C587 582.4 590.6 586 595 586H779C783.4 586 787 582.4 787 578V530C787 525.6 783.4 522 779 522H595ZM971 638C851.7 638 755 734.7 755 854C755 973.3 851.7 1070 971 1070C1090.3 1070 1187 973.3 1187 854C1187 734.7 1090.3 638 971 638ZM1078.5 961.5C1049.8 990.2 1011.6 1006 971 1006C930.4 1006 892.2 990.2 863.5 961.5C834.8 932.8 819 894.6 819 854C819 813.4 834.8 775.2 863.5 746.5C892.2 717.8 930.4 702 971 702C1011.6 702 1049.8 717.8 1078.5 746.5C1107.2 775.2 1123 813.4 1123 854C1123 894.6 1107.2 932.8 1078.5 961.5ZM1060 778H1015.7C1013.1 778 1010.7 779.2 1009.2 781.3L945.7 869.1L922.6 837.2C921.86 836.17 920.883 835.332 919.752 834.758C918.621 834.183 917.369 833.889 916.1 833.9H872C865.5 833.9 861.7 841.3 865.5 846.6L939.3 948.7C942.5 953.1 949 953.1 952.2 948.7L1066.4 790.7C1070.3 785.4 1066.5 778 1060 778ZM739 974H507V270H1067V614C1067 618.4 1070.6 622 1075 622H1131C1135.4 622 1139 618.4 1139 614V230C1139 212.3 1124.7 198 1107 198H467C449.3 198 435 212.3 435 230V1014C435 1031.7 449.3 1046 467 1046H739C743.4 1046 747 1042.4 747 1038V982C747 977.6 743.4 974 739 974Z" fill="#D60000"/>
</svg>
